Coordinates
version=1
nRows=34
nColumns=38
inDegrees=no

Units are S.I. units (second, meters, Newtons, ...)
If the header above contains a line with 'inDegrees', this indicates whether rotational values are in degrees (yes) or radians (no).

endheader
time	pelvis_tilt	pelvis_list	pelvis_rotation	pelvis_tx	pelvis_ty	pelvis_tz	hip_flexion_r	hip_adduction_r	hip_rotation_r	knee_angle_r	ankle_angle_r	subtalar_angle_r	mtp_angle_r	hip_flexion_l	hip_adduction_l	hip_rotation_l	knee_angle_l	ankle_angle_l	subtalar_angle_l	mtp_angle_l	lumbar_extension	lumbar_bending	lumbar_rotation	arm_flex_r	arm_add_r	arm_rot_r	elbow_flex_r	pro_sup_r	wrist_flex_r	wrist_dev_r	arm_flex_l	arm_add_l	arm_rot_l	elbow_flex_l	pro_sup_l	wrist_flex_l	wrist_dev_l
1.6	-0.343882	1.39019	-1.42955	0.784199	-0.158289	0.945424	-0.24654	-0.00707719	-0.045921	0.641975	0.333651	0	0	0.137454	-0.0609195	-0.331251	0.0604801	0.280023	0	0	-0.311	0.0640951	0.120871	0.354337	-0.446461	0.188245	1.07176	0.939013	0	0	0.27998	-0.374112	0.169311	1.05778	0.751478	0	0
1.61	-0.321762	1.39204	-1.45745	0.78442	-0.170658	0.943655	-0.233159	-0.0188367	-0.038418	0.690101	0.320777	0	0	0.135823	-0.054331	-0.32741	0.0697264	0.259913	0	0	-0.309168	0.0540723	0.122729	0.356592	-0.44326	0.18733	1.07112	0.937985	0	0	0.281238	-0.376481	0.167773	1.06073	0.74941	0	0
1.62	-0.294721	1.39616	-1.48788	0.784823	-0.182175	0.942095	-0.210325	-0.0295492	-0.0285808	0.747686	0.298924	0	0	0.144857	-0.0507732	-0.328863	0.0924799	0.218534	0	0	-0.307721	0.0426307	0.123691	0.358909	-0.43925	0.182383	1.07177	0.937592	0	0	0.286373	-0.378275	0.167602	1.0628	0.746628	0	0
1.63	-0.249853	1.4021	-1.53602	0.785079	-0.193156	0.940995	-0.179114	-0.0413997	-0.0150786	0.812856	0.266566	0	0	0.161307	-0.0478345	-0.338907	0.13161	0.178493	0	0	-0.305737	0.0275443	0.125724	0.360842	-0.434979	0.175934	1.0729	0.937867	0	0	0.295275	-0.379977	0.170827	1.06211	0.743461	0	0
1.64	-0.185559	1.4074	-1.60691	0.784765	-0.20401	0.940422	-0.143397	-0.0544168	0.00427098	0.881757	0.224288	0	0	0.177066	-0.0443066	-0.354374	0.177295	0.151806	0	0	-0.30356	0.00853492	0.131421	0.363287	-0.43104	0.170647	1.07274	0.941527	0	0	0.306066	-0.382457	0.177694	1.05908	0.740874	0	0
1.65	-0.116226	1.40975	-1.68654	0.783817	-0.215015	0.940248	-0.108096	-0.0659646	0.02845	0.949769	0.175623	0	0	0.185083	-0.0404947	-0.369231	0.215134	0.12249	0	0	-0.302538	-0.0119971	0.140596	0.366482	-0.428257	0.169874	1.07081	0.944217	0	0	0.315879	-0.386205	0.185199	1.05714	0.740741	0	0
1.66	-0.0545501	1.41117	-1.76124	0.782452	-0.226128	0.940049	-0.0725316	-0.0739275	0.0553317	1.01552	0.127308	0	0	0.186452	-0.037101	-0.384229	0.237921	0.075174	0	0	-0.30074	-0.0317634	0.152168	0.369434	-0.426077	0.171339	1.06792	0.945118	0	0	0.323222	-0.391029	0.190562	1.0581	0.741365	0	0
1.67	-0.00238878	1.4122	-1.82637	0.78119	-0.237271	0.939707	-0.0374457	-0.0790463	0.0798301	1.07779	0.084515	0	0	0.182554	-0.0329389	-0.396488	0.246234	0.0185813	0	0	-0.2984	-0.0493905	0.16258	0.37239	-0.423493	0.173516	1.06487	0.94549	0	0	0.327328	-0.396351	0.191692	1.06235	0.740827	0	0
1.68	0.0419932	1.414	-1.87932	0.780706	-0.24813	0.939164	-0.00230912	-0.0826551	0.0963401	1.13549	0.0501205	0	0	0.178589	-0.0273748	-0.401173	0.250428	-0.018855	0	0	-0.296276	-0.063342	0.167787	0.376546	-0.420573	0.17429	1.06323	0.944974	0	0	0.329321	-0.401557	0.191386	1.06943	0.741826	0	0
1.69	0.0856298	1.4184	-1.92755	0.780928	-0.258508	0.938367	0.035473	-0.0847481	0.106987	1.18843	0.0280519	0	0	0.180088	-0.0219731	-0.405351	0.261878	-0.0184416	0	0	-0.292922	-0.0743661	0.169213	0.3812	-0.41742	0.172041	1.06354	0.944379	0	0	0.331359	-0.405494	0.189428	1.07835	0.74462	0	0
1.7	0.109333	1.41967	-1.95305	0.781604	-0.268448	0.938168	0.0673869	-0.0838603	0.113887	1.23322	0.0212378	0	0	0.178681	-0.0170446	-0.408787	0.277271	0.00121669	0	0	-0.295812	-0.0817112	0.168265	0.38706	-0.415341	0.168448	1.06695	0.944748	0	0	0.335554	-0.407138	0.185553	1.08636	0.74628	0	0
1.71	0.107318	1.41791	-1.95396	0.782083	-0.278117	0.938819	0.0933796	-0.0786661	0.121392	1.27042	0.0302967	0	0	0.172289	-0.0140159	-0.414226	0.291464	0.0171842	0	0	-0.30394	-0.0860484	0.168926	0.39363	-0.414165	0.16438	1.07177	0.947225	0	0	0.341142	-0.406916	0.180669	1.0916	0.746699	0	0
1.72	0.0707461	1.41438	-1.92078	0.782277	-0.28777	0.94037	0.113075	-0.0673977	0.127331	1.29765	0.0500582	0	0	0.161018	-0.0152371	-0.417242	0.303329	0.0290618	0	0	-0.315857	-0.0851535	0.171407	0.400415	-0.414853	0.162092	1.07692	0.950684	0	0	0.347318	-0.40517	0.176312	1.09354	0.745446	0	0
1.73	0.00425994	1.41077	-1.8559	0.782446	-0.297613	0.942608	0.128004	-0.0508365	0.128679	1.31315	0.0726628	0	0	0.147079	-0.020835	-0.413492	0.313006	0.0408525	0	0	-0.328523	-0.0777781	0.173865	0.407007	-0.417529	0.163821	1.08101	0.951259	0	0	0.353213	-0.402217	0.172904	1.0921	0.743521	0	0
1.74	-0.0783522	1.40753	-1.77174	0.782858	-0.307687	0.945259	0.140388	-0.0320287	0.12415	1.31762	0.0925808	0	0	0.132799	-0.0294933	-0.403518	0.321244	0.0529545	0	0	-0.339724	-0.0650619	0.174171	0.414046	-0.420927	0.168668	1.08248	0.950422	0	0	0.357885	-0.399353	0.172999	1.08782	0.744541	0	0
1.75	-0.156442	1.40546	-1.68882	0.783663	-0.317948	0.947993	0.153318	-0.0156484	0.1138	1.31334	0.109107	0	0	0.120395	-0.0382298	-0.390034	0.32799	0.0644075	0	0	-0.347536	-0.0506166	0.171626	0.420873	-0.423794	0.173818	1.08148	0.950483	0	0	0.361992	-0.397073	0.17529	1.08249	0.746577	0	0
1.76	-0.228787	1.40418	-1.60868	0.784886	-0.328294	0.950731	0.166768	-0.00233156	0.0988876	1.3016	0.123224	0	0	0.109591	-0.0468879	-0.376306	0.333197	0.0747531	0	0	-0.35264	-0.035375	0.166665	0.427049	-0.426	0.177821	1.07864	0.950933	0	0	0.366363	-0.394588	0.178291	1.07595	0.748943	0	0
1.77	-0.289564	1.40351	-1.53925	0.786345	-0.338609	0.953409	0.180677	0.00740132	0.0828306	1.28397	0.134875	0	0	0.0991794	-0.0537637	-0.365499	0.334695	0.0820887	0	0	-0.355462	-0.0215726	0.160878	0.4322	-0.426808	0.179043	1.07421	0.950103	0	0	0.370561	-0.391881	0.181698	1.06917	0.75114	0	0
1.78	-0.340746	1.40363	-1.48003	0.787891	-0.348844	0.955919	0.195124	0.014353	0.0673878	1.26162	0.147324	0	0	0.0885183	-0.0585994	-0.358076	0.332156	0.0876214	0	0	-0.356415	-0.00950396	0.15556	0.436146	-0.427193	0.177614	1.07019	0.948924	0	0	0.373739	-0.388614	0.184029	1.06337	0.75244	0	0
1.79	-0.386758	1.40467	-1.42722	0.789363	-0.35907	0.958163	0.210024	0.0199207	0.0535647	1.23531	0.162303	0	0	0.0778459	-0.0620648	-0.353593	0.327156	0.0932122	0	0	-0.35566	0.00128042	0.151379	0.43813	-0.42904	0.178152	1.06867	0.948403	0	0	0.375133	-0.384961	0.184231	1.05967	0.753468	0	0
1.8	-0.43416	1.40541	-1.37424	0.790696	-0.36927	0.96016	0.224012	0.0260515	0.0417343	1.20538	0.178742	0	0	0.0667439	-0.0657286	-0.352247	0.321618	0.0997264	0	0	-0.354605	0.0120699	0.14829	0.439573	-0.432086	0.179046	1.06971	0.948408	0	0	0.374745	-0.381311	0.182016	1.05861	0.754454	0	0
1.81	-0.485914	1.40575	-1.31731	0.791914	-0.379491	0.961917	0.237006	0.033599	0.0316553	1.17208	0.194836	0	0	0.0554922	-0.0699148	-0.351426	0.315829	0.107146	0	0	-0.353428	0.0235743	0.145788	0.440295	-0.436296	0.179878	1.07316	0.948399	0	0	0.372892	-0.377865	0.178154	1.06017	0.755422	0	0
1.82	-0.542018	1.4061	-1.25577	0.793073	-0.389741	0.963413	0.249864	0.0422772	0.022655	1.13604	0.20903	0	0	0.0449033	-0.0742879	-0.348754	0.309435	0.114779	0	0	-0.351447	0.0359251	0.142842	0.440485	-0.441508	0.182474	1.07834	0.946324	0	0	0.369681	-0.374973	0.173037	1.06356	0.755913	0	0
1.83	-0.598077	1.40679	-1.19421	0.794089	-0.400032	0.964669	0.263209	0.0514055	0.015114	1.09804	0.220777	0	0	0.034839	-0.0781346	-0.344083	0.302257	0.122777	0	0	-0.348289	0.0479457	0.139401	0.440287	-0.446827	0.185935	1.08479	0.9423	0	0	0.365537	-0.373106	0.168021	1.06812	0.75628	0	0
1.84	-0.652028	1.40764	-1.13471	0.794972	-0.41035	0.965751	0.276781	0.0603776	0.0090044	1.05887	0.229723	0	0	0.0249845	-0.08128	-0.337899	0.294449	0.130545	0	0	-0.344236	0.0592402	0.135748	0.440156	-0.452713	0.190848	1.09174	0.936433	0	0	0.361414	-0.372093	0.164051	1.0731	0.755793	0	0
1.85	-0.702424	1.40796	-1.07894	0.795753	-0.420657	0.966772	0.289532	0.0682671	0.00309436	1.019	0.237895	0	0	0.0145395	-0.0840228	-0.330719	0.285969	0.137536	0	0	-0.33963	0.0698717	0.13199	0.439514	-0.458096	0.196888	1.09767	0.929949	0	0	0.357646	-0.371585	0.16143	1.07678	0.755118	0	0
1.86	-0.747561	1.40806	-1.02883	0.796417	-0.431027	0.967735	0.301589	0.0751801	-0.00221518	0.978284	0.244795	0	0	0.00343629	-0.0861678	-0.323718	0.277042	0.144086	0	0	-0.334176	0.0794058	0.128174	0.438657	-0.462319	0.202761	1.10193	0.924204	0	0	0.353872	-0.371235	0.159224	1.07891	0.754059	0	0
1.87	-0.788167	1.40836	-0.983729	0.797	-0.441461	0.968614	0.313373	0.0810979	-0.00689937	0.936852	0.250916	0	0	-0.00760916	-0.0876544	-0.31825	0.268358	0.150331	0	0	-0.327784	0.0878991	0.124577	0.437807	-0.465449	0.207288	1.1046	0.91944	0	0	0.350043	-0.370555	0.157387	1.07955	0.753073	0	0
1.88	-0.824245	1.40769	-0.94325	0.797567	-0.451923	0.969515	0.32358	0.086387	-0.0125685	0.894847	0.256368	0	0	-0.0193422	-0.0892548	-0.313408	0.260602	0.155923	0	0	-0.321621	0.0963174	0.120885	0.437151	-0.467924	0.212166	1.10539	0.914549	0	0	0.346136	-0.369219	0.155526	1.07879	0.753394	0	0
1.89	-0.857223	1.40605	-0.905686	0.798108	-0.462474	0.970375	0.332637	0.0911829	-0.0206618	0.853347	0.261849	0	0	-0.0316006	-0.0913556	-0.308707	0.253926	0.161358	0	0	-0.31563	0.105083	0.117185	0.436175	-0.470111	0.216792	1.10532	0.909639	0	0	0.34214	-0.366823	0.152643	1.07682	0.755109	0	0
1.9	-0.890007	1.40315	-0.867706	0.798675	-0.473092	0.971143	0.340678	0.0962781	-0.0308668	0.812262	0.267397	0	0	-0.0442335	-0.0946057	-0.304033	0.248211	0.16742	0	0	-0.309928	0.115053	0.113413	0.434968	-0.472472	0.221072	1.1051	0.904827	0	0	0.338343	-0.363211	0.14871	1.07355	0.757844	0	0
1.91	-0.921402	1.39887	-0.830358	0.799224	-0.48368	0.971832	0.347624	0.101947	-0.0430124	0.771105	0.272664	0	0	-0.0568396	-0.09933	-0.299511	0.24461	0.174485	0	0	-0.30502	0.126052	0.109662	0.433836	-0.474811	0.224085	1.10475	0.901195	0	0	0.335204	-0.358798	0.144666	1.06949	0.760184	0	0
1.92	-0.94912	1.39208	-0.7946	0.799897	-0.494267	0.972548	0.351867	0.107801	-0.0603792	0.728633	0.275889	0	0	-0.0705807	-0.106062	-0.293698	0.24231	0.182366	0	0	-0.30209	0.13915	0.104903	0.433061	-0.477367	0.225973	1.10427	0.897901	0	0	0.332822	-0.353359	0.140259	1.0648	0.763206	0	0
1.93	-0.973269	1.38505	-0.761963	0.800532	-0.504797	0.973109	0.356055	0.113169	-0.0795227	0.687503	0.277354	0	0	-0.0843295	-0.113009	-0.28804	0.240108	0.190238	0	0	-0.299585	0.152121	0.100108	0.431825	-0.479729	0.227706	1.10365	0.894077	0	0	0.330717	-0.347915	0.136091	1.06064	0.768848	0	0
